<svg width="200" height="200" viewBox="0 0 200 200" fill="none" xmlns="http://www.w3.org/2000/svg">
<circle cx="100" cy="100" r="100" fill="white"/>
<path d="M87 107.32V155.32H110V107.32H127C128.105 107.32 129 106.424 129 105.32V86.8197C129 85.7151 128.105 84.8197 127 84.8197H110V70.8198C110 68.6106 111.791 66.8198 114 66.8198H128C129.105 66.8198 130 65.9243 130 64.8198V47.1834C130 46.1335 129.158 45.2586 128.11 45.1988C87.4553 42.8773 86.0075 61.1803 86.5 84.8197H72C70.8954 84.8197 70 85.7151 70 86.8197V105.32C70 106.424 70.8954 107.32 72 107.32H87Z" fill="#606CEE"/>
</svg>
